<svg preserveAspectRatio="none" width="100%" height="100%" overflow="visible" style="display: block;" viewBox="0 0 19 18" fill="none" xmlns="http://www.w3.org/2000/svg">
<path id="Vector" d="M4.1558 2.80199e-07C3.99631 8.55207e-05 3.83977 0.0427384 3.70253 0.123503C3.5653 0.204268 3.4524 0.320181 3.37563 0.459134L0.110094 6.36059C0.0240325 6.51625 -0.0129293 6.69404 0.0040124 6.87085C0.0209542 7.04767 0.0910161 7.21532 0.205091 7.35204L8.81424 17.6796C8.89781 17.7798 9.00259 17.8605 9.12112 17.9159C9.23966 17.9713 9.36902 18 9.5 18C9.63098 18 9.76034 17.9713 9.87888 17.9159C9.99741 17.8605 10.1022 17.7798 10.1858 17.6796L18.7949 7.35204C18.909 7.21532 18.979 7.04767 18.996 6.87085C19.0129 6.69404 18.976 6.51625 18.8899 6.36059L15.6244 0.459134C15.5475 0.320006 15.4344 0.203978 15.297 0.123203C15.1595 0.0424268 15.0027 -0.000125989 14.843 2.80199e-07H4.1558ZM2.55984 5.60639L4.68185 1.77044H6.46305L5.11171 5.60639H2.55984ZM4.92053 7.37682L7.21115 12.9808L2.53847 7.37682H4.92053ZM9.48634 13.846L6.84304 7.37682H12.0513L9.48634 13.846ZM6.99979 5.60639L8.34994 1.77044H10.6596L12.081 5.60639H6.99979ZM13.9797 5.60639L12.5583 1.77044H14.3158L16.439 5.60639H13.9797ZM13.9655 7.37682H16.4592L11.7033 13.0824L13.9655 7.37682Z" fill="var(--fill-0, #222222)"/>
</svg>
