<svg preserveAspectRatio="none" width="100%" height="100%" overflow="visible" style="display: block;" viewBox="0 0 20 20" fill="none" xmlns="http://www.w3.org/2000/svg">
<path id="Vector" d="M17.6407 10.98C17.6818 10.66 17.7127 10.34 17.7127 10C17.7127 9.66001 17.6818 9.34001 17.6407 9.02001L19.8099 7.37002C20.0052 7.22002 20.0566 6.95002 19.9333 6.73002L17.8772 3.27002C17.8166 3.16685 17.7202 3.08804 17.6052 3.04773C17.4903 3.00741 17.3644 3.00823 17.25 3.05002L14.6902 4.05002C14.1556 3.65002 13.5799 3.32002 12.9528 3.07002L12.5621 0.420025C12.5447 0.302545 12.484 0.195211 12.3914 0.117964C12.2987 0.0407172 12.1804 -0.00119078 12.0584 2.57606e-05H7.94616C7.68915 2.57606e-05 7.47326 0.180026 7.44242 0.420025L7.05176 3.07002C6.42465 3.32002 5.84894 3.66002 5.31435 4.05002L2.7545 3.05002C2.69475 3.0309 2.63234 3.02079 2.56945 3.02002C2.39468 3.02002 2.21991 3.11002 2.12738 3.27002L0.0712765 6.73002C-0.0623704 6.95002 -0.00068705 7.22002 0.194643 7.37002L2.36384 9.02001C2.32271 9.34001 2.29187 9.67001 2.29187 10C2.29187 10.33 2.32271 10.66 2.36384 10.98L0.194643 12.63C-0.00068705 12.78 -0.0520898 13.05 0.0712765 13.27L2.12738 16.73C2.18799 16.8332 2.28439 16.912 2.3993 16.9523C2.51422 16.9926 2.64014 16.9918 2.7545 16.95L5.31435 15.95C5.84894 16.35 6.42465 16.68 7.05176 16.93L7.44242 19.58C7.47326 19.82 7.68915 20 7.94616 20H12.0584C12.3154 20 12.5313 19.82 12.5621 19.58L12.9528 16.93C13.5799 16.68 14.1556 16.34 14.6902 15.95L17.25 16.95C17.3117 16.97 17.3734 16.98 17.4351 16.98C17.6099 16.98 17.7846 16.89 17.8772 16.73L19.9333 13.27C20.0566 13.05 20.0052 12.78 19.8099 12.63L17.6407 10.98ZM15.6052 9.27001C15.6463 9.58001 15.6566 9.79001 15.6566 10C15.6566 10.21 15.636 10.43 15.6052 10.73L15.4612 11.86L16.3762 12.56L17.4865 13.4L16.7669 14.61L15.4612 14.1L14.3921 13.68L13.4668 14.36C13.0247 14.68 12.6032 14.92 12.1817 15.09L11.092 15.52L10.9275 16.65L10.7219 18H9.28263L9.0873 16.65L8.92281 15.52L7.83308 15.09C7.39102 14.91 6.97979 14.68 6.56857 14.38L5.63304 13.68L4.54331 14.11L3.23768 14.62L2.51804 13.41L3.62834 12.57L4.54331 11.87L4.39938 10.74C4.36854 10.43 4.34798 10.2 4.34798 10C4.34798 9.80001 4.36854 9.57001 4.39938 9.27001L4.54331 8.14002L3.62834 7.44002L2.51804 6.60002L3.23768 5.39002L4.54331 5.90002L5.61248 6.32002L6.53773 5.64002C6.97979 5.32002 7.4013 5.08002 7.8228 4.91002L8.91253 4.48002L9.07702 3.35002L9.28263 2.00002H10.7116L10.907 3.35002L11.0714 4.48002L12.1612 4.91002C12.6032 5.09002 13.0145 5.32002 13.4257 5.62002L14.3612 6.32002L15.451 5.89002L16.7566 5.38002L17.4762 6.59002L16.3762 7.44002L15.4612 8.14002L15.6052 9.27001ZM10.0023 6.00002C7.73027 6.00002 5.89006 7.79002 5.89006 10C5.89006 12.21 7.73027 14 10.0023 14C12.2743 14 14.1145 12.21 14.1145 10C14.1145 7.79002 12.2743 6.00002 10.0023 6.00002ZM10.0023 12C8.87141 12 7.94616 11.1 7.94616 10C7.94616 8.90001 8.87141 8.00002 10.0023 8.00002C11.1331 8.00002 12.0584 8.90001 12.0584 10C12.0584 11.1 11.1331 12 10.0023 12Z" fill="var(--fill-0, white)"/>
</svg>
