<svg preserveAspectRatio="none" width="100%" height="100%" overflow="visible" style="display: block;" viewBox="0 0 36 38" fill="none" xmlns="http://www.w3.org/2000/svg">
<g id="Night">
<rect width="36" height="38" rx="8" fill="var(--fill-0, white)"/>
<path id="60  Night, Day, Moon" d="M19.1086 28C16.8542 28.0055 14.6781 27.1729 13.0034 25.6639C11.3287 24.1549 10.2749 22.0774 10.0467 19.835C9.8185 17.5926 10.4323 15.3454 11.7688 13.5302C13.1052 11.7149 15.069 10.4613 17.2784 10.0128C17.4122 9.98583 17.5511 10.0018 17.6753 10.0583C17.7996 10.1148 17.9028 10.2091 17.9704 10.3277C18.0379 10.4463 18.0664 10.5831 18.0517 10.7188C18.037 10.8545 17.9799 10.9821 17.8884 11.0834C16.8739 12.1997 16.2055 13.5866 15.9644 15.0755C15.7232 16.5644 15.9198 18.0913 16.5302 19.4706C17.1407 20.8499 18.1386 22.0223 19.4028 22.8453C20.6671 23.6683 22.1432 24.1065 23.6518 24.1066C24.1792 24.1066 24.7053 24.0544 25.2224 23.9509C25.357 23.9237 25.4966 23.9398 25.6214 23.9969C25.7462 24.0541 25.8496 24.1493 25.9169 24.2689C25.9834 24.3874 26.0111 24.5237 25.996 24.6588C25.9808 24.7938 25.9237 24.9207 25.8325 25.0216C24.9813 25.9591 23.9434 26.7084 22.7854 27.2213C21.6275 27.7342 20.3751 27.9994 19.1086 28ZM15.7077 11.9075C14.7496 12.374 13.8974 13.032 13.2039 13.841C12.5104 14.65 11.9903 15.5926 11.6758 16.6106C11.3614 17.6286 11.2592 18.7003 11.3757 19.7594C11.4922 20.8185 11.8248 21.8424 12.353 22.7678C12.8812 23.6931 13.5937 24.5003 14.4465 25.1393C15.2992 25.7783 16.2741 26.2355 17.3107 26.4826C18.3473 26.7298 19.4236 26.7616 20.473 26.5761C21.5224 26.3907 22.5226 25.9919 23.4117 25.4044C21.8496 25.3637 20.3245 24.9209 18.9836 24.1188C17.6427 23.3168 16.5313 22.1826 15.7568 20.8257C14.9823 19.4689 14.5709 17.9353 14.5623 16.3731C14.5537 14.8108 14.9482 13.2728 15.7077 11.9075Z" fill="var(--fill-0, black)"/>
</g>
</svg>
