<svg preserveAspectRatio="none" width="100%" height="100%" overflow="visible" style="display: block;" viewBox="0 0 24 24" fill="none" xmlns="http://www.w3.org/2000/svg">
<g id="Group">
<path id="Vector" d="M8.6667 2.55555V21.4444M14.2223 8.66667L17.5556 12L14.2223 15.3333" stroke="var(--stroke-0, white)" stroke-width="2.5" stroke-linecap="round" stroke-linejoin="round"/>
<path id="Vector_2" d="M2 9.11111C2 6.62222 2 5.37778 2.48444 4.42667C2.91054 3.59043 3.59043 2.91054 4.42667 2.48444C5.37778 2 6.62222 2 9.11111 2H14.8889C17.3778 2 18.6222 2 19.5733 2.48444C20.4096 2.91054 21.0895 3.59043 21.5156 4.42667C22 5.37778 22 6.62222 22 9.11111V14.8889C22 17.3778 22 18.6222 21.5156 19.5733C21.0895 20.4096 20.4096 21.0895 19.5733 21.5156C18.6222 22 17.3778 22 14.8889 22H9.11111C6.62222 22 5.37778 22 4.42667 21.5156C3.59043 21.0895 2.91054 20.4096 2.48444 19.5733C2 18.6222 2 17.3778 2 14.8889V9.11111Z" stroke="var(--stroke-0, white)" stroke-width="2.5" stroke-linecap="round" stroke-linejoin="round"/>
</g>
</svg>
