<svg preserveAspectRatio="none" width="100%" height="100%" overflow="visible" style="display: block;" viewBox="0 0 15 20" fill="none" xmlns="http://www.w3.org/2000/svg">
<path id="Vector" d="M7.49986 12.6316C6.59835 12.6316 5.83207 12.3246 5.20101 11.7105C4.56996 11.0965 4.25443 10.3509 4.25443 9.47368V3.15789C4.25443 2.2807 4.56996 1.53509 5.20101 0.921052C5.83207 0.307018 6.59835 0 7.49986 0C8.40137 0 9.16765 0.307018 9.79871 0.921052C10.4298 1.53509 10.7453 2.2807 10.7453 3.15789V9.47368C10.7453 10.3509 10.4298 11.0965 9.79871 11.7105C9.16765 12.3246 8.40137 12.6316 7.49986 12.6316ZM6.41805 18.9474V16.7632C4.75927 16.5351 3.33958 15.8509 2.15896 14.7105C0.978345 13.5702 0.261465 12.1842 0.00832159 10.5526C-0.0277388 10.2544 0.0533974 10 0.251729 9.78947C0.450061 9.57895 0.702483 9.47368 1.009 9.47368C1.31551 9.47368 1.57262 9.57474 1.78033 9.77684C1.98803 9.97895 2.12759 10.2288 2.19899 10.5263C2.45141 11.7544 3.07814 12.7632 4.07917 13.5526C5.08021 14.3421 6.22044 14.7368 7.49986 14.7368C8.79803 14.7368 9.94295 14.3379 10.9346 13.54C11.9263 12.7421 12.5483 11.7375 12.8007 10.5263C12.8728 10.2281 13.0128 9.97824 13.2205 9.77684C13.4282 9.57544 13.6849 9.47438 13.9907 9.47368C14.2965 9.47298 14.5489 9.57824 14.748 9.78947C14.947 10.0007 15.0282 10.2551 14.9914 10.5526C14.739 12.1491 14.0268 13.5263 12.8548 14.6842C11.6829 15.8421 10.2585 16.5351 8.58167 16.7632V18.9474C8.58167 19.2456 8.47782 19.4958 8.27011 19.6979C8.0624 19.9 7.80565 20.0007 7.49986 20C7.19407 19.9993 6.93732 19.8982 6.72961 19.6968C6.5219 19.4954 6.41805 19.2456 6.41805 18.9474Z" fill="var(--fill-0, white)"/>
</svg>
