<svg preserveAspectRatio="none" width="100%" height="100%" overflow="visible" style="display: block;" viewBox="0 0 50 50" fill="none" xmlns="http://www.w3.org/2000/svg">
<g id="Toggle">
<path id="Vector" d="M16.6667 17.7083C15.2245 17.7083 13.8147 18.136 12.6156 18.9372C11.4165 19.7384 10.4819 20.8772 9.93005 22.2096C9.37816 23.542 9.23376 25.0081 9.51511 26.4225C9.79646 27.837 10.4909 29.1362 11.5107 30.156C12.5304 31.1757 13.8297 31.8702 15.2441 32.1516C16.6586 32.4329 18.1247 32.2885 19.4571 31.7366C20.7894 31.1847 21.9282 30.2501 22.7295 29.051C23.5307 27.8519 23.9583 26.4422 23.9583 25C23.9583 23.0661 23.1901 21.2115 21.8227 19.844C20.4552 18.4766 18.6005 17.7083 16.6667 17.7083ZM16.6667 28.125C16.0486 28.125 15.4444 27.9417 14.9305 27.5983C14.4166 27.255 14.0161 26.7669 13.7795 26.1959C13.543 25.6249 13.4811 24.9965 13.6017 24.3903C13.7223 23.7842 14.0199 23.2273 14.457 22.7903C14.894 22.3533 15.4508 22.0556 16.057 21.935C16.6632 21.8145 17.2915 21.8764 17.8626 22.1129C18.4336 22.3494 18.9216 22.7499 19.265 23.2638C19.6084 23.7777 19.7917 24.3819 19.7917 25C19.7917 25.8288 19.4624 26.6237 18.8764 27.2097C18.2903 27.7958 17.4955 28.125 16.6667 28.125ZM33.3333 10.4167H16.6667C12.7989 10.4167 9.0896 11.9531 6.35469 14.688C3.61979 17.4229 2.08333 21.1323 2.08333 25C2.08333 28.8677 3.61979 32.5771 6.35469 35.312C9.0896 38.0469 12.7989 39.5833 16.6667 39.5833H33.3333C37.2011 39.5833 40.9104 38.0469 43.6453 35.312C46.3802 32.5771 47.9167 28.8677 47.9167 25C47.9167 21.1323 46.3802 17.4229 43.6453 14.688C40.9104 11.9531 37.2011 10.4167 33.3333 10.4167ZM33.3333 35.4167H16.6667C13.904 35.4167 11.2545 34.3192 9.30097 32.3657C7.34747 30.4122 6.25 27.7627 6.25 25C6.25 22.2373 7.34747 19.5878 9.30097 17.6343C11.2545 15.6808 13.904 14.5833 16.6667 14.5833H33.3333C36.096 14.5833 38.7455 15.6808 40.699 17.6343C42.6525 19.5878 43.75 22.2373 43.75 25C43.75 27.7627 42.6525 30.4122 40.699 32.3657C38.7455 34.3192 36.096 35.4167 33.3333 35.4167Z" fill="var(--fill-0, white)"/>
</g>
</svg>
