<svg preserveAspectRatio="none" width="100%" height="100%" overflow="visible" style="display: block;" viewBox="0 0 18 18" fill="none" xmlns="http://www.w3.org/2000/svg">
<g id="Group 1">
<path id="Vector" d="M9.44372 13.6298C9.32599 13.7474 9.16639 13.8134 9 13.8134C8.8336 13.8134 8.67401 13.7474 8.55628 13.6298L6.46326 11.5368C6.40156 11.4793 6.35208 11.41 6.31776 11.3329C6.28344 11.2559 6.26499 11.1728 6.2635 11.0885C6.26202 11.0041 6.27753 10.9204 6.30911 10.8422C6.34069 10.764 6.38769 10.693 6.44732 10.6334C6.50694 10.5738 6.57796 10.5267 6.65615 10.4952C6.73434 10.4636 6.81808 10.4481 6.90239 10.4496C6.9867 10.4511 7.06985 10.4695 7.14687 10.5038C7.22389 10.5381 7.29321 10.5876 7.3507 10.6493L8.37209 11.6707V8.16281C8.37209 7.99627 8.43825 7.83656 8.556 7.71881C8.67376 7.60105 8.83347 7.5349 9 7.5349C9.16653 7.5349 9.32624 7.60105 9.444 7.71881C9.56175 7.83656 9.62791 7.99627 9.62791 8.16281V11.6707L10.6493 10.6493C10.7068 10.5876 10.7761 10.5381 10.8531 10.5038C10.9302 10.4695 11.0133 10.4511 11.0976 10.4496C11.1819 10.4481 11.2657 10.4636 11.3438 10.4952C11.422 10.5267 11.4931 10.5738 11.5527 10.6334C11.6123 10.693 11.6593 10.764 11.6909 10.8422C11.7225 10.9204 11.738 11.0041 11.7365 11.0885C11.735 11.1728 11.7166 11.2559 11.6822 11.3329C11.6479 11.41 11.5984 11.4793 11.5367 11.5368L9.44372 13.6298Z" fill="var(--fill-0, white)"/>
<path id="Vector_2" fill-rule="evenodd" clip-rule="evenodd" d="M9.04772 0H8.95228C7.01916 0 5.50465 4.99016e-08 4.32251 0.15907C3.11358 0.321488 2.15916 0.661395 1.40986 1.40986C0.660558 2.15916 0.321488 3.11358 0.15907 4.32335C4.99016e-08 5.50465 0 7.01916 0 8.95228V9H0.00837208C-7.79712e-09 9.48474 0 10.0298 0 10.646V10.7029C0 11.8507 4.36639e-08 12.7515 0.0586047 13.4749C0.119721 14.2116 0.243628 14.8203 0.52493 15.3712C0.986472 16.277 1.72296 17.0135 2.62884 17.4751C3.17972 17.7564 3.78837 17.8811 4.52512 17.9406C5.24846 18 6.1493 18 7.29712 18H10.7029C11.8507 18 12.7515 18 13.4749 17.9414C14.2116 17.8811 14.8203 17.7564 15.3712 17.4751C16.277 17.0135 17.0135 16.277 17.4751 15.3712C17.7564 14.8203 17.8811 14.2116 17.9406 13.4749C18 12.7515 18 11.8507 18 10.7029V10.646C18 10.0298 18 9.48474 17.9916 9H18V8.95228C18 7.01916 18 5.50465 17.8409 4.32251C17.6785 3.11358 17.3386 2.15916 16.5901 1.40986C15.8408 0.660558 14.8864 0.321488 13.6767 0.15907C12.4953 4.99016e-08 10.9808 0 9.04772 0ZM2.62884 3.87377C2.16044 4.11311 1.73405 4.42697 1.36633 4.80307C1.37749 4.69591 1.38977 4.59181 1.40316 4.49079C1.54716 3.42 1.82177 2.77451 2.29814 2.2973C2.77535 1.82093 3.42 1.54716 4.49079 1.40316C5.57916 1.25749 7.00912 1.25581 9 1.25581C10.9909 1.25581 12.4208 1.25749 13.5092 1.40316C14.58 1.54716 15.2255 1.82177 15.7027 2.29814C16.1791 2.77535 16.4528 3.42 16.5968 4.49079C16.6097 4.59126 16.622 4.69535 16.6337 4.80307C16.2659 4.42697 15.8396 4.11311 15.3712 3.87377C14.8203 3.59246 14.2116 3.46856 13.4749 3.40828C12.7515 3.34884 11.8507 3.34884 10.7029 3.34884H7.29712C6.1493 3.34884 5.24846 3.34884 4.52512 3.40744C3.78837 3.46856 3.17972 3.59246 2.62884 3.87377ZM3.19814 4.99228C3.54307 4.81646 3.96837 4.71349 4.62726 4.65991C5.29367 4.60549 6.1426 4.60465 7.32558 4.60465H10.6744C11.8566 4.60465 12.7063 4.60465 13.3727 4.65991C14.0316 4.71349 14.4569 4.8173 14.8019 4.99228C15.4714 5.3336 16.0156 5.87813 16.3566 6.54781C16.5324 6.89191 16.6353 7.31721 16.6889 7.97609C16.7433 8.64251 16.7442 9.49144 16.7442 10.6744C16.7442 11.8574 16.7442 12.7063 16.6889 13.3727C16.6353 14.0316 16.5315 14.4569 16.3566 14.8019C16.0155 15.4712 15.4712 16.0155 14.8019 16.3566C14.4569 16.5324 14.0316 16.6353 13.3727 16.6889C12.7063 16.7433 11.8574 16.7442 10.6744 16.7442H7.32558C6.1426 16.7442 5.29367 16.7442 4.62726 16.6889C3.96837 16.6353 3.54307 16.5315 3.19898 16.3566C2.5293 16.0156 1.98477 15.4714 1.64344 14.8019C1.46763 14.4569 1.36465 14.0316 1.31107 13.3727C1.25665 12.7063 1.25581 11.8574 1.25581 10.6744C1.25581 9.49144 1.25581 8.64251 1.31107 7.97609C1.36465 7.31721 1.46847 6.89191 1.64344 6.54781C1.98462 5.87801 2.52833 5.33346 3.19814 4.99228Z" fill="var(--fill-0, white)"/>
</g>
</svg>
