<svg preserveAspectRatio="none" width="100%" height="100%" overflow="visible" style="display: block;" viewBox="0 0 20 20" fill="none" xmlns="http://www.w3.org/2000/svg">
<g id="Group">
<path id="Vector" d="M16.8061 5.5C16.8544 5.22418 16.8418 4.94113 16.7691 4.67071C16.6964 4.40029 16.5654 4.14906 16.3853 3.93464C16.2052 3.72023 15.9804 3.54784 15.7266 3.42956C15.4728 3.31129 15.1961 3.25 14.9161 3.25H5.08451C4.80449 3.25 4.52786 3.31129 4.27405 3.42956C4.02023 3.54784 3.79538 3.72023 3.61527 3.93464C3.43517 4.14906 3.30417 4.40029 3.23149 4.67071C3.1588 4.94113 3.14618 5.22418 3.19451 5.5M14.9503 3.25C14.9755 3.016 14.989 2.8999 14.989 2.8036C14.99 2.35872 14.8262 1.92925 14.5292 1.59802C14.2322 1.26679 13.8231 1.05728 13.3807 1.0099C13.2853 1 13.1683 1 12.9343 1H7.06631C6.83231 1 6.71441 1 6.61901 1.0099C6.17666 1.05728 5.76753 1.26679 5.47054 1.59802C5.17355 1.92925 5.00974 2.35872 5.01071 2.8036C5.01071 2.8999 5.02331 3.0169 5.04941 3.25" stroke="var(--stroke-0, white)" stroke-width="1.5"/>
<path id="Vector_2" d="M12.7003 15.4H7.3003" stroke="var(--stroke-0, white)" stroke-width="1.5" stroke-linecap="round"/>
<path id="Vector_3" d="M1.3459 11.6137C0.943596 8.7661 0.742896 7.3432 1.5961 6.4207C2.4493 5.5 3.9685 5.5 7.0051 5.5H12.9955C16.0321 5.5 17.5513 5.5 18.4045 6.4216C19.2577 7.3432 19.0561 8.7661 18.6547 11.6137L18.2749 14.3137C17.9599 16.5457 17.8024 17.6626 16.9951 18.3313C16.1878 19 14.9971 19 12.6148 19H7.3858C5.0044 19 3.8128 19 3.0055 18.3313C2.1982 17.6626 2.0407 16.5466 1.7257 14.3137L1.3459 11.6137Z" stroke="var(--stroke-0, white)" stroke-width="1.5"/>
</g>
</svg>
