<svg preserveAspectRatio="none" width="100%" height="100%" overflow="visible" style="display: block;" viewBox="0 0 15 18" fill="none" xmlns="http://www.w3.org/2000/svg">
<path id="Vector" d="M7.5 18L5 15.4286H0V0H15V15.4286H10L7.5 18ZM1.66667 13.7143H5.66667L7.5 15.6L9.33333 13.7143H13.3333V1.71429H1.66667V13.7143ZM7.41667 12.8571C7.70833 12.8571 7.955 12.7534 8.15667 12.546C8.35833 12.3386 8.45889 12.0851 8.45833 11.7857C8.45778 11.4863 8.35694 11.2326 8.15583 11.0246C7.95472 10.8166 7.70833 10.7131 7.41667 10.7143C7.125 10.7154 6.87833 10.8191 6.67667 11.0254C6.475 11.2317 6.37444 11.4851 6.375 11.7857C6.37556 12.0863 6.47639 12.34 6.6775 12.5469C6.87861 12.7537 7.125 12.8571 7.41667 12.8571ZM6.66667 9.55714H8.20833C8.20833 9.31429 8.21889 9.10714 8.24 8.93571C8.26111 8.76429 8.30611 8.6 8.375 8.44286C8.44389 8.28571 8.53056 8.13943 8.635 8.004C8.73944 7.86857 8.88889 7.70057 9.08333 7.5C9.56944 7 9.91333 6.582 10.115 6.246C10.3167 5.91 10.4172 5.528 10.4167 5.1C10.4167 4.34286 10.1667 3.73229 9.66667 3.26829C9.16667 2.80429 8.49306 2.572 7.64583 2.57143C6.88194 2.57143 6.23278 2.76429 5.69833 3.15C5.16389 3.53571 4.79222 4.07143 4.58333 4.75714L5.95833 5.31429C6.05556 4.92857 6.25 4.618 6.54167 4.38257C6.83333 4.14714 7.17361 4.02914 7.5625 4.02857C7.9375 4.02857 8.25 4.13229 8.5 4.33971C8.75 4.54714 8.875 4.822 8.875 5.16429C8.875 5.40714 8.79861 5.66429 8.64583 5.93571C8.49306 6.20714 8.23611 6.50714 7.875 6.83571C7.63889 7.03571 7.44778 7.23229 7.30167 7.42543C7.15556 7.61857 7.03417 7.822 6.9375 8.03571C6.84083 8.24943 6.77139 8.47457 6.72917 8.71114C6.68694 8.94771 6.66611 9.22971 6.66667 9.55714Z" fill="var(--fill-0, white)"/>
</svg>
