<svg preserveAspectRatio="none" width="100%" height="100%" overflow="visible" style="display: block;" viewBox="0 0 11 15" fill="none" xmlns="http://www.w3.org/2000/svg">
<path id="Vector" fill-rule="evenodd" clip-rule="evenodd" d="M4.41059 0.194787C4.52332 0.317018 4.58527 0.481284 4.58282 0.651491C4.58038 0.821698 4.51374 0.983923 4.39756 1.10252L2.11933 3.42496H10.3889C10.551 3.42496 10.7064 3.49262 10.821 3.61307C10.9356 3.73352 11 3.89688 11 4.06722C11 4.23756 10.9356 4.40092 10.821 4.52137C10.7064 4.64182 10.551 4.70949 10.3889 4.70949H2.11852L4.39756 7.03192C4.45812 7.08985 4.50698 7.15999 4.54125 7.23816C4.57552 7.31633 4.59448 7.40094 4.59703 7.48697C4.59957 7.57299 4.58563 7.65868 4.55604 7.73893C4.52646 7.81919 4.48183 7.89237 4.4248 7.95415C4.36778 8.01592 4.29952 8.06501 4.22408 8.09851C4.14865 8.13201 4.06758 8.14924 3.98569 8.14917C3.90379 8.14909 3.82275 8.13172 3.74737 8.09808C3.67199 8.06445 3.60381 8.01523 3.54689 7.95336L0.185778 4.52794C0.127135 4.46808 0.080517 4.39646 0.0486829 4.31732C0.0168489 4.23818 0.000446037 4.15314 0.000446037 4.06722C0.000446037 3.9813 0.0168489 3.89626 0.0486829 3.81712C0.080517 3.73798 0.127135 3.66636 0.185778 3.6065L3.54689 0.181085C3.66319 0.0626097 3.81949 -0.00249591 3.98144 7.32486e-05C4.14339 0.00264241 4.29775 0.0726762 4.41059 0.194787ZM6.58941 7.04562C6.70225 6.92351 6.85661 6.85348 7.01856 6.85091C7.18051 6.84834 7.33681 6.91344 7.45311 7.03192L10.8142 10.4573C10.8729 10.5172 10.9195 10.5888 10.9513 10.668C10.9832 10.7471 10.9996 10.8321 10.9996 10.9181C10.9996 11.004 10.9832 11.089 10.9513 11.1682C10.9195 11.2473 10.8729 11.3189 10.8142 11.3788L7.45311 14.8042C7.39619 14.8661 7.32801 14.9153 7.25263 14.9489C7.17725 14.9826 7.09621 14.9999 7.01431 15C6.93242 15.0001 6.85135 14.9828 6.77592 14.9493C6.70048 14.9158 6.63222 14.8667 6.5752 14.805C6.51817 14.7432 6.47354 14.67 6.44395 14.5898C6.41437 14.5095 6.40043 14.4238 6.40297 14.3378C6.40552 14.2518 6.42448 14.1672 6.45875 14.089C6.49302 14.0108 6.54188 13.9407 6.60244 13.8828L8.88067 11.5603H0.611111C0.449034 11.5603 0.293596 11.4927 0.17899 11.3722C0.0643847 11.2518 0 11.0884 0 10.9181C0 10.7477 0.0643847 10.5844 0.17899 10.4639C0.293596 10.3435 0.449034 10.2758 0.611111 10.2758H8.88148L6.60244 7.95336C6.48626 7.83476 6.41962 7.67253 6.41718 7.50233C6.41473 7.33212 6.47668 7.16785 6.58941 7.04562Z" fill="var(--fill-0, white)"/>
</svg>
