<svg preserveAspectRatio="none" width="100%" height="100%" overflow="visible" style="display: block;" viewBox="0 0 13 13" fill="none" xmlns="http://www.w3.org/2000/svg">
<path id="Vector" d="M4.80797 9.61593C3.4642 9.61593 2.32706 9.15042 1.39653 8.2194C0.466003 7.28838 0.000493516 6.15124 3.91369e-07 4.80797C-0.000492733 3.46469 0.465017 2.32755 1.39653 1.39653C2.32804 0.46551 3.46519 0 4.80797 0C6.15074 0 7.28814 0.46551 8.22014 1.39653C9.15215 2.32755 9.61741 3.46469 9.61593 4.80797C9.61593 5.3504 9.52963 5.86202 9.35704 6.34282C9.18445 6.82361 8.95021 7.24893 8.65434 7.61878L12.7966 11.761C12.9322 11.8966 13 12.0692 13 12.2788C13 12.4884 12.9322 12.661 12.7966 12.7966C12.661 12.9322 12.4884 13 12.2788 13C12.0692 13 11.8966 12.9322 11.761 12.7966L7.61878 8.65434C7.24893 8.95021 6.82361 9.18445 6.34282 9.35704C5.86202 9.52963 5.3504 9.61593 4.80797 9.61593ZM4.80797 8.13656C5.73257 8.13656 6.51862 7.81307 7.16609 7.16609C7.81356 6.51911 8.13705 5.73307 8.13656 4.80797C8.13606 3.88286 7.81257 3.09707 7.16609 2.45058C6.5196 1.8041 5.73356 1.48036 4.80797 1.47937C3.88237 1.47839 3.09658 1.80212 2.45058 2.45058C1.80459 3.09904 1.48085 3.88484 1.47937 4.80797C1.4779 5.7311 1.80163 6.51714 2.45058 7.16609C3.09954 7.81504 3.88533 8.13853 4.80797 8.13656Z" fill="var(--fill-0, #C4C1C1)"/>
</svg>
