<svg preserveAspectRatio="none" width="100%" height="100%" overflow="visible" style="display: block;" viewBox="0 0 78 23" fill="none" xmlns="http://www.w3.org/2000/svg">
<g id="Frame 34">
<path id="Vector" d="M8.88235 15.4C8.52647 15.4 8.22192 15.2728 7.96871 15.0184C7.71549 14.7641 7.58867 14.4579 7.58823 14.1V6.3C7.58823 5.9425 7.71506 5.63657 7.96871 5.3822C8.22235 5.12783 8.5269 5.00043 8.88235 5H14.7059C15.0618 5 15.3665 5.1274 15.6202 5.3822C15.8738 5.637 16.0004 5.94293 16 6.3V14.1C16 14.4575 15.8734 14.7636 15.6202 15.0184C15.367 15.2732 15.0622 15.4004 14.7059 15.4H8.88235ZM8.88235 14.1H14.7059V6.3H8.88235V14.1ZM6.29412 18C5.93824 18 5.63369 17.8728 5.38047 17.6184C5.12725 17.3641 5.00043 17.0579 5 16.7V8.25C5 8.06583 5.06212 7.91156 5.18635 7.7872C5.31059 7.66283 5.46416 7.60043 5.64706 7.6C5.82996 7.59956 5.98374 7.66196 6.10841 7.7872C6.23308 7.91243 6.29498 8.0667 6.29412 8.25V16.7H12.7647C12.948 16.7 13.1018 16.7624 13.2261 16.8872C13.3503 17.012 13.4122 17.1663 13.4118 17.35C13.4113 17.5337 13.3492 17.6882 13.2254 17.8134C13.1016 17.9387 12.948 18.0009 12.7647 18H6.29412Z" fill="var(--fill-0, white)"/>
<path id="Vector_2" d="M42 18C41.4444 18 40.9722 17.8104 40.5833 17.4312C40.1944 17.0521 40 16.5917 40 16.05C40 15.985 40.0167 15.8333 40.05 15.595L35.3667 12.93C35.1889 13.0925 34.9833 13.2199 34.75 13.3122C34.5167 13.4045 34.2667 13.4504 34 13.45C33.4444 13.45 32.9722 13.2604 32.5833 12.8812C32.1944 12.5021 32 12.0417 32 11.5C32 10.9583 32.1944 10.4979 32.5833 10.1187C32.9722 9.73958 33.4444 9.55 34 9.55C34.2667 9.55 34.5167 9.59615 34.75 9.68845C34.9833 9.78075 35.1889 9.90793 35.3667 10.07L40.05 7.405C40.0278 7.32917 40.014 7.25615 40.0087 7.18595C40.0033 7.11575 40.0004 7.0371 40 6.95C40 6.40833 40.1944 5.94792 40.5833 5.56875C40.9722 5.18958 41.4444 5 42 5C42.5556 5 43.0278 5.18958 43.4167 5.56875C43.8056 5.94792 44 6.40833 44 6.95C44 7.49167 43.8056 7.95208 43.4167 8.33125C43.0278 8.71042 42.5556 8.9 42 8.9C41.7333 8.9 41.4833 8.85385 41.25 8.76155C41.0167 8.66925 40.8111 8.54207 40.6333 8.38L35.95 11.045C35.9722 11.1208 35.9862 11.1941 35.992 11.2647C35.9978 11.3353 36.0004 11.4138 36 11.5C35.9996 11.5862 35.9969 11.6649 35.992 11.7359C35.9871 11.807 35.9731 11.88 35.95 11.955L40.6333 14.62C40.8111 14.4575 41.0167 14.3303 41.25 14.2384C41.4833 14.1466 41.7333 14.1004 42 14.1C42.5556 14.1 43.0278 14.2896 43.4167 14.6687C43.8056 15.0479 44 15.5083 44 16.05C44 16.5917 43.8056 17.0521 43.4167 17.4312C43.0278 17.8104 42.5556 18 42 18ZM42 16.7C42.1889 16.7 42.3473 16.6378 42.4753 16.5134C42.6033 16.3891 42.6671 16.2346 42.6667 16.05C42.6662 15.8654 42.6022 15.7111 42.4747 15.5872C42.3471 15.4633 42.1889 15.4009 42 15.4C41.8111 15.3991 41.6529 15.4615 41.5253 15.5872C41.3978 15.7129 41.3338 15.8671 41.3333 16.05C41.3329 16.2329 41.3969 16.3873 41.5253 16.5134C41.6538 16.6395 41.812 16.7017 42 16.7ZM34 12.15C34.1889 12.15 34.3473 12.0876 34.4753 11.9628C34.6033 11.838 34.6671 11.6837 34.6667 11.5C34.6662 11.3163 34.6022 11.162 34.4747 11.0372C34.3471 10.9124 34.1889 10.85 34 10.85C33.8111 10.85 33.6529 10.9124 33.5253 11.0372C33.3978 11.162 33.3338 11.3163 33.3333 11.5C33.3329 11.6837 33.3969 11.8382 33.5253 11.9634C33.6538 12.0887 33.812 12.1509 34 12.15ZM42 7.6C42.1889 7.6 42.3473 7.5376 42.4753 7.4128C42.6033 7.288 42.6671 7.13373 42.6667 6.95C42.6662 6.76627 42.6022 6.612 42.4747 6.4872C42.3471 6.3624 42.1889 6.3 42 6.3C41.8111 6.3 41.6529 6.3624 41.5253 6.4872C41.3978 6.612 41.3338 6.76627 41.3333 6.95C41.3329 7.13373 41.3969 7.28822 41.5253 7.41345C41.6538 7.53868 41.812 7.60087 42 7.6Z" fill="var(--fill-0, white)"/>
<path id="Vector_3" d="M73 11.5C73 12.3333 72.8531 13.1138 72.5592 13.8413C72.2654 14.5689 71.8682 15.2022 71.3676 15.7413C70.867 16.2804 70.2789 16.7082 69.6033 17.0247C68.9277 17.3411 68.2028 17.4996 67.4286 17.5V16.1667C68.6357 16.1667 69.6598 15.7138 70.5009 14.808C71.342 13.9022 71.7623 12.7996 71.7619 11.5C71.7615 10.2004 71.3412 9.09756 70.5009 8.19134C69.6606 7.28511 68.6365 6.83245 67.4286 6.83333C66.2206 6.83422 65.1967 7.28689 64.3569 8.19134C63.517 9.09578 63.0965 10.1987 63.0952 11.5V11.6L64.0548 10.5667L64.9524 11.5L62.4762 14.1667L60 11.5L60.8976 10.5667L61.8571 11.6V11.5C61.8571 10.6667 62.0043 9.886 62.2985 9.158C62.5928 8.43 62.99 7.79667 63.4902 7.258C63.9904 6.71933 64.5785 6.29156 65.2545 5.97467C65.9305 5.65778 66.6552 5.49956 67.4286 5.5C68.202 5.50045 68.9269 5.65867 69.6033 5.97467C70.2797 6.29067 70.8678 6.71845 71.3676 7.258C71.8673 7.79756 72.2646 8.43089 72.5592 9.158C72.8539 9.88511 73.0008 10.6658 73 11.5Z" fill="var(--fill-0, white)"/>
</g>
</svg>
