<svg preserveAspectRatio="none" width="100%" height="100%" overflow="visible" style="display: block;" viewBox="0 0 20 20" fill="none" xmlns="http://www.w3.org/2000/svg">
<g id="Google" clip-path="url(#clip0_14_97)">
<path id="Vector" d="M19.9894 10.1871C19.9894 9.36771 19.9214 8.76977 19.7741 8.14969H10.1992V11.848H15.8195C15.7062 12.7671 15.0943 14.1512 13.7345 15.0813L13.7155 15.2051L16.7429 17.4969L16.9526 17.5174C18.8789 15.7789 19.9894 13.2211 19.9894 10.1871Z" fill="var(--fill-0, #4285F4)"/>
<path id="Vector_2" d="M10.1992 19.9313C12.9527 19.9313 15.2642 19.0454 16.9526 17.5174L13.7345 15.0813C12.8734 15.6682 11.7176 16.0779 10.1992 16.0779C7.50237 16.0779 5.21346 14.3395 4.39753 11.9366L4.27793 11.9466L1.12998 14.3273L1.08881 14.4391C2.76582 17.6945 6.21055 19.9313 10.1992 19.9313Z" fill="var(--fill-0, #34A853)"/>
<path id="Vector_3" d="M4.39753 11.9366C4.18224 11.3166 4.05764 10.6521 4.05764 9.96565C4.05764 9.27908 4.18224 8.61473 4.3862 7.99466L4.3805 7.8626L1.1931 5.44366L1.08881 5.49214C0.397631 6.84305 0.00103133 8.36008 0.00103133 9.96565C0.00103133 11.5712 0.397631 13.0882 1.08881 14.4391L4.39753 11.9366Z" fill="var(--fill-0, #FBBC05)"/>
<path id="Vector_4" d="M10.1992 3.85336C12.1142 3.85336 13.4059 4.66168 14.1425 5.33718L17.0206 2.59107C15.253 0.985496 12.9527 1.83105e-07 10.1992 1.83105e-07C6.21055 1.83105e-07 2.76582 2.23672 1.08881 5.49214L4.3862 7.99466C5.21346 5.59183 7.50237 3.85336 10.1992 3.85336Z" fill="var(--fill-0, #EB4335)"/>
</g>
<defs>
<clipPath id="clip0_14_97">
<rect width="20" height="20" fill="white"/>
</clipPath>
</defs>
</svg>
