<svg preserveAspectRatio="none" width="100%" height="100%" overflow="visible" style="display: block;" viewBox="0 0 16 15" fill="none" xmlns="http://www.w3.org/2000/svg">
<path id="Vector" d="M3.14315 5.36765e-08C2.98776 -5.46696e-05 2.83528 0.0417345 2.70201 0.120897C2.56875 0.20006 2.45971 0.313619 2.38658 0.449426L0.100842 4.69463C0.0227388 4.83969 -0.0111695 5.00409 0.00323467 5.16787C0.0176388 5.33165 0.0797358 5.48776 0.181986 5.61726L7.3249 14.6737C7.40507 14.7753 7.50756 14.8575 7.6246 14.9141C7.74163 14.9706 7.87013 15 8.00034 15C8.13055 15 8.25905 14.9706 8.37608 14.9141C8.49312 14.8575 8.59561 14.7753 8.67577 14.6737L15.8187 5.61726C15.9208 5.48765 15.9827 5.33147 15.9969 5.1677C16.0111 5.00392 15.977 4.83958 15.8987 4.69463L13.613 0.449426C13.5399 0.313788 13.4311 0.20034 13.298 0.121188C13.165 0.0420363 13.0127 0.000150406 12.8575 5.36765e-08H3.14315ZM2.134 4.52822L3.65744 1.69808H5.11689L4.40259 4.52822H2.134ZM2.83801 6.2263H4.6026L5.77861 9.95416L2.83801 6.2263ZM6.39804 6.2263H9.60264L8.00034 11.3047L6.39804 6.2263ZM11.3981 6.2263H13.1627L10.2221 9.95416L11.3981 6.2263ZM13.8667 4.52822H11.5981L10.8838 1.69808H12.3432L13.8667 4.52822ZM9.83121 4.52822H6.16947L6.88376 1.69808H9.11692L9.83121 4.52822Z" fill="var(--fill-0, white)"/>
</svg>
