<svg preserveAspectRatio="none" width="100%" height="100%" overflow="visible" style="display: block;" viewBox="0 0 16 15" fill="none" xmlns="http://www.w3.org/2000/svg">
<path id="Vector" d="M4.63867 12.25C4.99737 12.2492 5.29863 12.3708 5.55566 12.6201C5.81261 12.8694 5.93487 13.1583 5.93359 13.499C5.93231 13.8413 5.80938 14.1317 5.55469 14.3818C5.30152 14.6303 5.00077 14.7517 4.63867 14.75H4.6377C4.27694 14.75 3.97608 14.6277 3.7207 14.3799C3.46566 14.1324 3.3423 13.8438 3.3418 13.5C3.34137 13.1567 3.46406 12.868 3.71973 12.6211C3.9765 12.3732 4.27877 12.2508 4.63867 12.25ZM12.3682 12.25C12.7269 12.2493 13.0281 12.3708 13.2852 12.6201C13.5421 12.8694 13.6644 13.1583 13.6631 13.499C13.6618 13.8413 13.5389 14.1317 13.2842 14.3818C13.031 14.6303 12.7303 14.7517 12.3682 14.75H12.3672C12.0064 14.75 11.7056 14.6277 11.4502 14.3799C11.1951 14.1324 11.0718 13.8438 11.0713 13.5C11.0709 13.1567 11.1935 12.868 11.4492 12.6211C11.706 12.3732 12.0083 12.2508 12.3682 12.25ZM2.375 0.25L5.5918 6.85938L5.66016 7H11.3721L11.4443 6.87402L14.3857 1.75H15.5703L12.0088 8H5.3418L5.27051 8.12695L4.41992 9.62695L4.20898 10H13.6631V11H2.45801L4.5459 7.32324L4.61133 7.20898L4.55273 7.08984L1.77051 1.39062L1.70215 1.25H0.25V0.25H2.375ZM10.5713 3.25V4.25H6.43359V3.25H10.5713Z" fill="var(--fill-0, white)" stroke="var(--stroke-0, white)" stroke-width="0.5"/>
</svg>
