<svg preserveAspectRatio="none" width="100%" height="100%" overflow="visible" style="display: block;" viewBox="0 0 40 40" fill="none" xmlns="http://www.w3.org/2000/svg">
<g id="Sun">
<rect width="40" height="40" rx="10" fill="var(--fill-0, #504E4E)"/>
<path id="Vector" d="M13 20C13 19.7348 12.8946 19.4804 12.7071 19.2929C12.5196 19.1054 12.2652 19 12 19H11C10.7348 19 10.4804 19.1054 10.2929 19.2929C10.1054 19.4804 10 19.7348 10 20C10 20.2652 10.1054 20.5196 10.2929 20.7071C10.4804 20.8946 10.7348 21 11 21H12C12.2652 21 12.5196 20.8946 12.7071 20.7071C12.8946 20.5196 13 20.2652 13 20ZM13.64 25L12.93 25.71C12.7437 25.8974 12.6392 26.1508 12.6392 26.415C12.6392 26.6792 12.7437 26.9326 12.93 27.12C13.1174 27.3063 13.3708 27.4108 13.635 27.4108C13.8992 27.4108 14.1526 27.3063 14.34 27.12L15.05 26.41C15.2138 26.2187 15.2994 25.9726 15.2897 25.7209C15.28 25.4693 15.1757 25.2305 14.9976 25.0524C14.8195 24.8743 14.5807 24.77 14.3291 24.7603C14.0774 24.7506 13.8313 24.8362 13.64 25ZM20 13C20.2652 13 20.5196 12.8946 20.7071 12.7071C20.8946 12.5196 21 12.2652 21 12V11C21 10.7348 20.8946 10.4804 20.7071 10.2929C20.5196 10.1054 20.2652 10 20 10C19.7348 10 19.4804 10.1054 19.2929 10.2929C19.1054 10.4804 19 10.7348 19 11V12C19 12.2652 19.1054 12.5196 19.2929 12.7071C19.4804 12.8946 19.7348 13 20 13ZM25.66 15.34C25.9223 15.3389 26.1737 15.2347 26.36 15.05L27.07 14.34C27.1747 14.2504 27.2597 14.14 27.3197 14.016C27.3797 13.8919 27.4135 13.7568 27.4188 13.6191C27.4241 13.4813 27.4009 13.344 27.3506 13.2157C27.3004 13.0874 27.2241 12.9708 27.1266 12.8733C27.0292 12.7759 26.9126 12.6996 26.7843 12.6494C26.656 12.5991 26.5187 12.5759 26.3809 12.5812C26.2432 12.5865 26.1081 12.6203 25.984 12.6803C25.86 12.7403 25.7496 12.8253 25.66 12.93L25 13.64C24.8137 13.8274 24.7092 14.0808 24.7092 14.345C24.7092 14.6092 24.8137 14.8626 25 15.05C25.1763 15.2254 25.4116 15.3288 25.66 15.34ZM13.66 15.05C13.8463 15.2347 14.0977 15.3389 14.36 15.34C14.4916 15.3408 14.6221 15.3155 14.7439 15.2658C14.8657 15.216 14.9766 15.1427 15.07 15.05C15.2563 14.8626 15.3608 14.6092 15.3608 14.345C15.3608 14.0808 15.2563 13.8274 15.07 13.64L14.36 12.93C14.2674 12.8361 14.1572 12.7614 14.0358 12.71C13.9143 12.6587 13.7839 12.6318 13.6521 12.6309C13.5202 12.63 13.3895 12.655 13.2673 12.7046C13.1451 12.7542 13.0339 12.8274 12.94 12.92C12.8461 13.0126 12.7714 13.1228 12.72 13.2442C12.6687 13.3657 12.6418 13.4961 12.6409 13.6279C12.639 13.8942 12.743 14.1504 12.93 14.34L13.66 15.05ZM29 19H28C27.7348 19 27.4804 19.1054 27.2929 19.2929C27.1054 19.4804 27 19.7348 27 20C27 20.2652 27.1054 20.5196 27.2929 20.7071C27.4804 20.8946 27.7348 21 28 21H29C29.2652 21 29.5196 20.8946 29.7071 20.7071C29.8946 20.5196 30 20.2652 30 20C30 19.7348 29.8946 19.4804 29.7071 19.2929C29.5196 19.1054 29.2652 19 29 19ZM26.36 25C26.17 24.8943 25.9508 24.8534 25.7355 24.8835C25.5202 24.9136 25.3205 25.0131 25.1668 25.1668C25.0131 25.3205 24.9136 25.5202 24.8835 25.7355C24.8534 25.9508 24.8943 26.17 25 26.36L25.71 27.07C25.8974 27.2563 26.1508 27.3608 26.415 27.3608C26.6792 27.3608 26.9326 27.2563 27.12 27.07C27.3063 26.8826 27.4108 26.6292 27.4108 26.365C27.4108 26.1008 27.3063 25.8474 27.12 25.66L26.36 25ZM20 14.5C18.9122 14.5 17.8488 14.8226 16.9444 15.4269C16.0399 16.0313 15.3349 16.8902 14.9187 17.8952C14.5024 18.9002 14.3935 20.0061 14.6057 21.073C14.8179 22.1399 15.3417 23.1199 16.1109 23.8891C16.8801 24.6583 17.8601 25.1821 18.927 25.3943C19.9939 25.6065 21.0998 25.4976 22.1048 25.0813C23.1098 24.6651 23.9687 23.9601 24.5731 23.0556C25.1774 22.1512 25.5 21.0878 25.5 20C25.4974 18.5421 24.917 17.1447 23.8862 16.1138C22.8553 15.083 21.4579 14.5026 20 14.5ZM20 23.5C19.3078 23.5 18.6311 23.2947 18.0555 22.9101C17.4799 22.5256 17.0313 21.9789 16.7664 21.3394C16.5015 20.6999 16.4322 19.9961 16.5673 19.3172C16.7023 18.6382 17.0356 18.0146 17.5251 17.5251C18.0146 17.0356 18.6382 16.7023 19.3172 16.5673C19.9961 16.4322 20.6999 16.5015 21.3394 16.7664C21.9789 17.0313 22.5256 17.4799 22.9101 18.0555C23.2947 18.6311 23.5 19.3078 23.5 20C23.5 20.9283 23.1313 21.8185 22.4749 22.4749C21.8185 23.1313 20.9283 23.5 20 23.5ZM20 27C19.7348 27 19.4804 27.1054 19.2929 27.2929C19.1054 27.4804 19 27.7348 19 28V29C19 29.2652 19.1054 29.5196 19.2929 29.7071C19.4804 29.8946 19.7348 30 20 30C20.2652 30 20.5196 29.8946 20.7071 29.7071C20.8946 29.5196 21 29.2652 21 29V28C21 27.7348 20.8946 27.4804 20.7071 27.2929C20.5196 27.1054 20.2652 27 20 27Z" fill="var(--fill-0, black)"/>
</g>
</svg>
