<svg preserveAspectRatio="none" width="100%" height="100%" overflow="visible" style="display: block;" viewBox="0 0 47 23" fill="none" xmlns="http://www.w3.org/2000/svg">
<g id="Frame 33">
<path id="Vector" d="M8.88235 15.4C8.52647 15.4 8.22192 15.2728 7.96871 15.0184C7.71549 14.7641 7.58867 14.4579 7.58823 14.1V6.3C7.58823 5.9425 7.71506 5.63657 7.96871 5.3822C8.22235 5.12783 8.5269 5.00043 8.88235 5H14.7059C15.0618 5 15.3665 5.1274 15.6202 5.3822C15.8738 5.637 16.0004 5.94293 16 6.3V14.1C16 14.4575 15.8734 14.7636 15.6202 15.0184C15.367 15.2732 15.0622 15.4004 14.7059 15.4H8.88235ZM8.88235 14.1H14.7059V6.3H8.88235V14.1ZM6.29412 18C5.93824 18 5.63369 17.8728 5.38047 17.6184C5.12725 17.3641 5.00043 17.0579 5 16.7V8.25C5 8.06583 5.06212 7.91156 5.18635 7.7872C5.31059 7.66283 5.46416 7.60043 5.64706 7.6C5.82996 7.59956 5.98374 7.66196 6.10841 7.7872C6.23308 7.91243 6.29498 8.0667 6.29412 8.25V16.7H12.7647C12.948 16.7 13.1018 16.7624 13.2261 16.8872C13.3503 17.012 13.4122 17.1663 13.4118 17.35C13.4113 17.5337 13.3492 17.6882 13.2254 17.8134C13.1016 17.9387 12.948 18.0009 12.7647 18H6.29412Z" fill="var(--fill-0, white)"/>
<path id="Vector_2" d="M29.5556 16.5556H30.6639L38.2667 9.49583L37.1583 8.46667L29.5556 15.5264V16.5556ZM28 18V14.9306L38.2667 5.41528C38.4222 5.28287 38.5941 5.18056 38.7823 5.10833C38.9706 5.03611 39.1681 5 39.375 5C39.5819 5 39.7828 5.03611 39.9778 5.10833C40.1727 5.18056 40.3413 5.28889 40.4833 5.43333L41.5528 6.44444C41.7083 6.57685 41.8219 6.73333 41.8934 6.91389C41.965 7.09444 42.0005 7.275 42 7.45556C42 7.64815 41.9645 7.83183 41.8934 8.00661C41.8224 8.18139 41.7088 8.34076 41.5528 8.48472L31.3056 18H28ZM37.7028 8.99028L37.1583 8.46667L38.2667 9.49583L37.7028 8.99028Z" fill="var(--fill-0, white)"/>
</g>
</svg>
