<svg preserveAspectRatio="none" width="100%" height="100%" overflow="visible" style="display: block;" viewBox="0 0 8 15" fill="none" xmlns="http://www.w3.org/2000/svg">
<path id="Vector" fill-rule="evenodd" clip-rule="evenodd" d="M0.266555 14.7806C0.561095 15.0731 1.03745 15.0731 1.33126 14.7806L7.55879 8.58295C7.69819 8.44633 7.80919 8.28191 7.88504 8.09967C7.96089 7.91743 8 7.72119 8 7.52288C8 7.32456 7.96089 7.12832 7.88504 6.94608C7.80919 6.76385 7.69819 6.59942 7.55879 6.46281L1.28617 0.219371C1.14381 0.0798382 0.955292 0.00141179 0.758893 1.88757e-05C0.562494 -0.00137404 0.372944 0.074371 0.228737 0.211871C0.1573 0.279773 0.100141 0.362075 0.060799 0.453681C0.0214574 0.545286 0.000771093 0.644246 2.11489e-05 0.74443C-0.000728795 0.844615 0.0184736 0.943891 0.0564391 1.03611C0.0944047 1.12833 0.150325 1.21154 0.220738 1.28057L5.96173 6.99303C6.03148 7.06134 6.08703 7.14358 6.12499 7.23473C6.16295 7.32588 6.18252 7.42405 6.18252 7.52325C6.18252 7.62246 6.16295 7.72062 6.12499 7.81177C6.08703 7.90293 6.03148 7.98516 5.96173 8.05348L0.266555 13.7209C0.196818 13.7892 0.141283 13.8714 0.103333 13.9624C0.0653829 14.0535 0.0458118 14.1516 0.0458118 14.2508C0.0458118 14.3499 0.0653829 14.448 0.103333 14.5391C0.141283 14.6302 0.196818 14.7124 0.266555 14.7806Z" fill="var(--fill-0, white)"/>
</svg>
