<svg preserveAspectRatio="none" width="100%" height="100%" overflow="visible" style="display: block;" viewBox="0 0 19 17" fill="none" xmlns="http://www.w3.org/2000/svg">
<g id="Group">
<path id="Vector" d="M10.9978 6.66537L2.99289 7.24358C1.91896 7.32106 1 6.5554 1 5.58228C1 4.61 1.91896 3.84433 2.99289 3.92182L10.9978 4.50002" stroke="var(--stroke-0, white)" stroke-linejoin="round"/>
<path id="Vector_2" d="M16.8298 10.1646H10.1646M16.8298 1H10.1646M9.33147 16H17.6621M10.3529 16C10.812 15.1768 11.1552 13.603 12.7815 13.5147C13.2648 13.4881 13.7563 13.4881 14.2396 13.5147C15.8659 13.603 16.21 15.1768 16.6698 16M15.9967 1H10.9978C10.9978 1 10.5812 3.46778 10.5812 5.58231C10.5812 7.69768 10.9978 10.1646 10.9978 10.1646H15.9967C15.9967 10.1646 16.4132 7.69768 16.4132 5.58231C16.4132 3.46778 15.9967 1 15.9967 1Z" stroke="var(--stroke-0, white)" stroke-linecap="round" stroke-linejoin="round"/>
</g>
</svg>
