<svg preserveAspectRatio="none" width="100%" height="100%" overflow="visible" style="display: block;" viewBox="0 0 16 887" fill="none" xmlns="http://www.w3.org/2000/svg">
<g id="Frame 16">
<rect width="10" height="887" transform="translate(3)" fill="#413E3E"/>
<path id="Vector" d="M1.81395 8C1.56977 8 1.37333 7.91489 1.22465 7.74468C1.07597 7.57447 1.00109 7.37589 1 7.14894C1 7.0922 1.0814 6.89362 1.24419 6.55319L7.14533 0.382978C7.28099 0.241134 7.41665 0.141844 7.55231 0.0851067C7.68797 0.0283691 7.83719 0 7.99998 0C8.16277 0 8.31199 0.0283691 8.44765 0.0851067C8.58331 0.141844 8.71897 0.241134 8.85463 0.382978L14.7558 6.55319C14.8372 6.6383 14.8985 6.73078 14.9397 6.83064C14.981 6.9305 15.001 7.0366 15 7.14894C15 7.37589 14.9256 7.57447 14.7769 7.74468C14.6283 7.91489 14.4313 8 14.186 8H1.81395Z" fill="var(--fill-0, white)"/>
<rect id="Rectangle 1" x="4" y="279" width="8" height="329" rx="4" fill="var(--fill-0, #D9D9D9)"/>
<path id="Vector_2" d="M14.6279 879C14.8895 879 15.1 879.085 15.2593 879.255C15.4186 879.426 15.4988 879.624 15.5 879.851C15.5 879.908 15.4128 880.106 15.2384 880.447L8.91572 886.617C8.77037 886.759 8.62502 886.858 8.47967 886.915C8.33432 886.972 8.17444 887 8.00002 887C7.8256 887 7.66572 886.972 7.52037 886.915C7.37502 886.858 7.22968 886.759 7.08433 886.617L0.761672 880.447C0.674463 880.362 0.608764 880.269 0.564578 880.169C0.520392 880.07 0.498882 879.963 0.500045 879.851C0.500045 879.624 0.579695 879.426 0.738996 879.255C0.898298 879.085 1.10934 879 1.37213 879H14.6279Z" fill="var(--fill-0, white)"/>
</g>
</svg>
