<svg preserveAspectRatio="none" width="100%" height="100%" overflow="visible" style="display: block;" viewBox="0 0 15 15" fill="none" xmlns="http://www.w3.org/2000/svg">
<path id="Vector" d="M12.0986 8.7666L12.1865 9.375L12.2275 9.66211L12.498 9.76855C12.6571 9.83115 12.8029 9.918 12.9424 10.0273L13.1709 10.207L13.4395 10.0977L14.0039 9.86816L14.3926 10.5391L13.9111 10.916L13.6641 11.1084L13.7295 11.415C13.7419 11.4734 13.749 11.5478 13.749 11.6406C13.749 11.7137 13.7387 11.7944 13.7236 11.9004L13.6826 12.1895L13.9131 12.3672L14.3965 12.7402L14.0107 13.4053L13.4385 13.1758L13.1631 13.0654L12.9346 13.2529C12.8183 13.3483 12.668 13.4323 12.4854 13.5137L12.2334 13.626L12.1943 13.8994L12.1074 14.5H11.3428L11.2559 13.8994L11.2148 13.6113L10.9443 13.5049C10.7853 13.4422 10.6396 13.3555 10.5 13.2461L10.2715 13.0674L10.0029 13.1768L9.4375 13.4053L9.04883 12.7344L9.53125 12.3584L9.75879 12.1807L9.71875 11.8955C9.69466 11.7216 9.69466 11.545 9.71875 11.3711L9.75879 11.0859L9.53125 10.9082L9.04883 10.5312L9.4375 9.86035L10.0029 10.0898L10.2715 10.1992L10.5 10.0205C10.6287 9.91959 10.7836 9.83363 10.9648 9.75293L11.2168 9.64062L11.2559 9.36719L11.3428 8.7666H12.0986ZM11.7227 10.1182C11.5238 10.1181 11.3262 10.1573 11.1426 10.2334C10.9592 10.3095 10.7927 10.4211 10.6523 10.5615C10.5119 10.7021 10.4002 10.8691 10.3242 11.0527C10.2482 11.2364 10.2091 11.434 10.209 11.6328C10.209 11.8314 10.2474 12.0283 10.3232 12.2119C10.3991 12.3957 10.511 12.5624 10.6514 12.7031C10.7917 12.8438 10.9581 12.9559 11.1416 13.0322C11.3251 13.1085 11.522 13.1473 11.7207 13.1475C12.1222 13.1476 12.5073 12.9881 12.791 12.7041C13.0746 12.4201 13.2341 12.0351 13.2344 11.6338C13.2345 11.2323 13.0755 10.8468 12.792 10.5625C12.5086 10.2783 12.124 10.1184 11.7227 10.1182ZM5.9541 0.5L6.11914 1.67773L6.1582 1.95898L6.4209 2.06934C6.70164 2.18713 6.95568 2.33777 7.19141 2.52148L7.41895 2.69824L7.68555 2.59082L8.7959 2.14258L9.6416 3.60645L8.69727 4.34863L8.47363 4.52441L8.51074 4.80664C8.53148 4.96599 8.54395 5.11628 8.54395 5.26074C8.54393 5.40536 8.53105 5.55485 8.51074 5.7041L8.47266 5.98828L8.69727 6.16504L9.6416 6.90625L8.7959 8.37012L7.68555 7.92285L7.41895 7.81543L7.19141 7.99219C6.95816 8.17397 6.69615 8.32639 6.41699 8.44629L6.1582 8.55664L6.11914 8.83594L5.95215 10.0215H4.25977L4.09375 8.84375L4.05469 8.56152L3.79199 8.45215L3.58691 8.35742C3.38575 8.25685 3.19843 8.13788 3.02148 8L2.79395 7.82324L2.52734 7.93066L1.41602 8.37793L0.570312 6.91309L1.51562 6.17188L1.73926 5.99707L1.70215 5.71484C1.68141 5.55552 1.66896 5.40518 1.66895 5.26074C1.66895 5.11619 1.68186 4.96658 1.70215 4.81738L1.74023 4.5332L1.51562 4.35645L0.570312 3.61426L1.41504 2.15039L2.52734 2.59766L2.79395 2.70605L3.02148 2.52832C3.25465 2.34665 3.51686 2.19504 3.7959 2.0752L4.05469 1.96387L4.09375 1.68555L4.26074 0.5H5.9541ZM5.10645 3.25781C4.00436 3.25781 3.10645 4.1589 3.10645 5.26074C3.10657 6.36249 4.00444 7.26367 5.10645 7.26367C6.20841 7.26362 7.10633 6.36246 7.10645 5.26074C7.10645 4.15893 6.20848 3.25786 5.10645 3.25781Z" stroke="var(--stroke-0, white)"/>
</svg>
