<svg preserveAspectRatio="none" width="100%" height="100%" overflow="visible" style="display: block;" viewBox="0 0 12 572" fill="none" xmlns="http://www.w3.org/2000/svg">
<g id="Frame 16">
<rect width="8" height="572" transform="translate(2)" fill="#413E3E"/>
<path id="Vector" d="M1.13953 6C0.947673 6 0.793332 5.93617 0.676511 5.80851C0.55969 5.68085 0.500853 5.53192 0.5 5.3617C0.5 5.31915 0.563953 5.17021 0.69186 4.91489L5.32847 0.287233C5.43506 0.18085 5.54165 0.106383 5.64824 0.06383C5.75483 0.0212768 5.87208 0 5.99998 0C6.12789 0 6.24514 0.0212768 6.35173 0.06383C6.45832 0.106383 6.5649 0.18085 6.67149 0.287233L11.3081 4.91489C11.3721 4.97872 11.4202 5.04808 11.4526 5.12298C11.485 5.19787 11.5008 5.27745 11.5 5.3617C11.5 5.53192 11.4416 5.68085 11.3247 5.80851C11.2079 5.93617 11.0531 6 10.8604 6H1.13953Z" fill="var(--fill-0, white)"/>
<rect id="Rectangle 1" x="3" y="163" width="6" height="246" rx="3" fill="var(--fill-0, #D9D9D9)"/>
<path id="Vector_2" d="M10.4186 566C10.593 566 10.7333 566.064 10.8395 566.191C10.9457 566.319 10.9992 566.468 11 566.638C11 566.681 10.9419 566.83 10.8256 567.085L6.61048 571.713C6.51358 571.819 6.41668 571.894 6.31978 571.936C6.22288 571.979 6.11629 572 6.00001 572C5.88374 572 5.77715 571.979 5.68025 571.936C5.58335 571.894 5.48645 571.819 5.38955 571.713L1.17445 567.085C1.11631 567.021 1.07251 566.952 1.04305 566.877C1.01359 566.802 0.999255 566.723 1.00003 566.638C1.00003 566.468 1.05313 566.319 1.15933 566.191C1.26553 566.064 1.40623 566 1.58142 566H10.4186Z" fill="var(--fill-0, white)"/>
</g>
</svg>
