<svg preserveAspectRatio="none" width="100%" height="100%" overflow="visible" style="display: block;" viewBox="0 0 45 45" fill="none" xmlns="http://www.w3.org/2000/svg">
<g id="Frame 19">
<rect width="45" height="45" rx="22.5" fill="var(--fill-0, #343333)"/>
<path id="Vector" d="M21.3571 23.6429H15.6429C15.3191 23.6429 15.0478 23.5331 14.8291 23.3137C14.6105 23.0943 14.5008 22.823 14.5 22.5C14.4992 22.177 14.609 21.9057 14.8291 21.6863C15.0493 21.4669 15.3206 21.3571 15.6429 21.3571H21.3571V15.6429C21.3571 15.3191 21.4669 15.0478 21.6863 14.8291C21.9057 14.6105 22.177 14.5008 22.5 14.5C22.823 14.4992 23.0947 14.609 23.3149 14.8291C23.535 15.0493 23.6444 15.3206 23.6429 15.6429V21.3571H29.3571C29.6809 21.3571 29.9526 21.4669 30.172 21.6863C30.3914 21.9057 30.5008 22.177 30.5 22.5C30.4992 22.823 30.3895 23.0947 30.1709 23.3149C29.9522 23.535 29.6809 23.6444 29.3571 23.6429H23.6429V29.3571C23.6429 29.6809 23.5331 29.9526 23.3137 30.172C23.0943 30.3914 22.823 30.5008 22.5 30.5C22.177 30.4992 21.9057 30.3895 21.6863 30.1709C21.4669 29.9522 21.3571 29.6809 21.3571 29.3571V23.6429Z" fill="var(--fill-0, white)"/>
</g>
</svg>
