<svg preserveAspectRatio="none" width="100%" height="100%" overflow="visible" style="display: block;" viewBox="0 0 20 20" fill="none" xmlns="http://www.w3.org/2000/svg">
<g id="Group">
<path id="Vector" d="M5.26316 14.7368V10.9474M10 14.7368V5.26315M14.7368 14.7368V9.05263" stroke="var(--stroke-0, white)" stroke-width="1.5" stroke-linecap="round"/>
<path id="Vector_2" d="M1 10C1 5.75768 1 3.63558 2.31779 2.31779C3.63558 1 5.75674 1 10 1C14.2423 1 16.3644 1 17.6822 2.31779C19 3.63558 19 5.75674 19 10C19 14.2423 19 16.3644 17.6822 17.6822C16.3644 19 14.2433 19 10 19C5.75768 19 3.63558 19 2.31779 17.6822C1 16.3644 1 14.2433 1 10Z" stroke="var(--stroke-0, white)" stroke-width="1.5" stroke-linejoin="round"/>
</g>
</svg>
