<svg preserveAspectRatio="none" width="100%" height="100%" overflow="visible" style="display: block;" viewBox="0 0 12 12" fill="none" xmlns="http://www.w3.org/2000/svg">
<path id="Vector" d="M5.14286 6.85714H0.857145C0.614288 6.85714 0.41086 6.77486 0.24686 6.61029C0.0828602 6.44571 0.000574384 6.24229 2.95566e-06 6C-0.000568473 5.75771 0.0817173 5.55429 0.24686 5.38971C0.412003 5.22514 0.615431 5.14286 0.857145 5.14286H5.14286V0.857145C5.14286 0.614288 5.22514 0.41086 5.38971 0.24686C5.55429 0.0828602 5.75771 0.000574384 6 2.95566e-06C6.24229 -0.000568473 6.446 0.0817173 6.61114 0.24686C6.77629 0.412003 6.85829 0.615431 6.85714 0.857145V5.14286H11.1429C11.3857 5.14286 11.5894 5.22514 11.754 5.38971C11.9186 5.55429 12.0006 5.75771 12 6C11.9994 6.24229 11.9171 6.446 11.7531 6.61114C11.5891 6.77629 11.3857 6.85829 11.1429 6.85714H6.85714V11.1429C6.85714 11.3857 6.77486 11.5894 6.61029 11.754C6.44571 11.9186 6.24229 12.0006 6 12C5.75771 11.9994 5.55429 11.9171 5.38971 11.7531C5.22514 11.5891 5.14286 11.3857 5.14286 11.1429V6.85714Z" fill="var(--fill-0, white)"/>
</svg>
