<svg preserveAspectRatio="none" width="100%" height="100%" overflow="visible" style="display: block;" viewBox="0 0 12 204" fill="none" xmlns="http://www.w3.org/2000/svg">
<g id="Frame 16">
<rect width="10" height="204" transform="translate(1)" fill="#413E3E"/>
<path id="Vector" d="M1.13953 6C0.947673 6 0.793332 5.93617 0.676511 5.80851C0.55969 5.68085 0.500853 5.53192 0.5 5.3617C0.5 5.31915 0.563953 5.17021 0.69186 4.91489L5.32847 0.287233C5.43506 0.18085 5.54165 0.106383 5.64824 0.06383C5.75483 0.0212768 5.87208 0 5.99998 0C6.12789 0 6.24514 0.0212768 6.35173 0.06383C6.45832 0.106383 6.5649 0.18085 6.67149 0.287233L11.3081 4.91489C11.3721 4.97872 11.4202 5.04808 11.4526 5.12298C11.485 5.19787 11.5008 5.27745 11.5 5.3617C11.5 5.53192 11.4416 5.68085 11.3247 5.80851C11.2079 5.93617 11.0531 6 10.8604 6H1.13953Z" fill="var(--fill-0, white)"/>
<rect id="Rectangle 1" x="3" y="54" width="6" height="96" rx="3" fill="var(--fill-0, #D9D9D9)"/>
<path id="Vector_2" d="M10.8605 198C11.0523 198 11.2067 198.064 11.3235 198.191C11.4403 198.319 11.4991 198.468 11.5 198.638C11.5 198.681 11.436 198.83 11.3081 199.085L6.67153 203.713C6.56494 203.819 6.45835 203.894 6.35176 203.936C6.24517 203.979 6.12792 204 6.00002 204C5.87211 204 5.75486 203.979 5.64827 203.936C5.54168 203.894 5.4351 203.819 5.32851 203.713L0.691893 199.085C0.62794 199.021 0.57976 198.952 0.547357 198.877C0.514954 198.802 0.499181 198.723 0.500033 198.638C0.500033 198.468 0.558443 198.319 0.675264 198.191C0.792086 198.064 0.946853 198 1.13957 198H10.8605Z" fill="var(--fill-0, white)"/>
</g>
</svg>
