<svg preserveAspectRatio="none" width="100%" height="100%" overflow="visible" style="display: block;" viewBox="0 0 38 40" fill="none" xmlns="http://www.w3.org/2000/svg">
<g id="Frame 10">
<rect width="38" height="40" rx="10" fill="url(#paint0_linear_31_143)"/>
<path id="Vector" d="M18 21H13C12.7167 21 12.4793 20.904 12.288 20.712C12.0967 20.52 12.0007 20.2827 12 20C11.9993 19.7173 12.0953 19.48 12.288 19.288C12.4807 19.096 12.718 19 13 19H18V14C18 13.7167 18.096 13.4793 18.288 13.288C18.48 13.0967 18.7173 13.0007 19 13C19.2827 12.9993 19.5203 13.0953 19.713 13.288C19.9057 13.4807 20.0013 13.718 20 14V19H25C25.2833 19 25.521 19.096 25.713 19.288C25.905 19.48 26.0007 19.7173 26 20C25.9993 20.2827 25.9033 20.5203 25.712 20.713C25.5207 20.9057 25.2833 21.0013 25 21H20V26C20 26.2833 19.904 26.521 19.712 26.713C19.52 26.905 19.2827 27.0007 19 27C18.7173 26.9993 18.48 26.9033 18.288 26.712C18.096 26.5207 18 26.2833 18 26V21Z" fill="var(--fill-0, white)"/>
</g>
<defs>
<linearGradient id="paint0_linear_31_143" x1="0" y1="20" x2="38" y2="20" gradientUnits="userSpaceOnUse">
<stop stop-color="#504E4E"/>
<stop offset="1" stop-color="#595858"/>
</linearGradient>
</defs>
</svg>
